<mxfile host="app.diagrams.net" agent="Mozilla/5.0 (Macintosh; Intel Mac OS X 10_15_7) AppleWebKit/605.1.15 (KHTML, like Gecko) Version/18.0 Safari/605.1.15" version="24.9.0">
  <diagram id="C5RBs43oDa-KdzZeNtuy" name="Page-1">
    <mxGraphModel dx="1363" dy="1923" grid="1" gridSize="10" guides="1" tooltips="1" connect="1" arrows="1" fold="1" page="1" pageScale="1" pageWidth="827" pageHeight="1169" math="0" shadow="0">
      <root>
        <mxCell id="WIyWlLk6GJQsqaUBKTNV-0" />
        <mxCell id="WIyWlLk6GJQsqaUBKTNV-1" parent="WIyWlLk6GJQsqaUBKTNV-0" />
        <mxCell id="StJIcaHxCYxP3RWTADUP-0" style="edgeStyle=orthogonalEdgeStyle;rounded=0;orthogonalLoop=1;jettySize=auto;html=1;entryX=0.5;entryY=0;entryDx=0;entryDy=0;" edge="1" parent="WIyWlLk6GJQsqaUBKTNV-1" source="StJIcaHxCYxP3RWTADUP-2" target="StJIcaHxCYxP3RWTADUP-5">
          <mxGeometry relative="1" as="geometry">
            <Array as="points">
              <mxPoint x="370" y="-1100" />
              <mxPoint x="224" y="-1100" />
            </Array>
          </mxGeometry>
        </mxCell>
        <mxCell id="StJIcaHxCYxP3RWTADUP-1" style="edgeStyle=orthogonalEdgeStyle;rounded=0;orthogonalLoop=1;jettySize=auto;html=1;entryX=0.5;entryY=0;entryDx=0;entryDy=0;" edge="1" parent="WIyWlLk6GJQsqaUBKTNV-1" source="StJIcaHxCYxP3RWTADUP-2" target="StJIcaHxCYxP3RWTADUP-7">
          <mxGeometry relative="1" as="geometry">
            <Array as="points">
              <mxPoint x="370" y="-1100" />
              <mxPoint x="514" y="-1100" />
            </Array>
          </mxGeometry>
        </mxCell>
        <mxCell id="StJIcaHxCYxP3RWTADUP-2" value="Inicio" style="rounded=0;whiteSpace=wrap;html=1;" vertex="1" parent="WIyWlLk6GJQsqaUBKTNV-1">
          <mxGeometry x="309" y="-1169" width="121" height="60" as="geometry" />
        </mxCell>
        <mxCell id="StJIcaHxCYxP3RWTADUP-3" value="Recursos totales&amp;nbsp;" style="rounded=0;whiteSpace=wrap;html=1;" vertex="1" parent="WIyWlLk6GJQsqaUBKTNV-1">
          <mxGeometry x="304" y="-1090" width="120" height="60" as="geometry" />
        </mxCell>
        <mxCell id="StJIcaHxCYxP3RWTADUP-4" style="edgeStyle=orthogonalEdgeStyle;rounded=0;orthogonalLoop=1;jettySize=auto;html=1;entryX=0.5;entryY=0;entryDx=0;entryDy=0;" edge="1" parent="WIyWlLk6GJQsqaUBKTNV-1" source="StJIcaHxCYxP3RWTADUP-5" target="StJIcaHxCYxP3RWTADUP-8">
          <mxGeometry relative="1" as="geometry">
            <Array as="points">
              <mxPoint x="224" y="-1020" />
              <mxPoint x="364" y="-1020" />
            </Array>
          </mxGeometry>
        </mxCell>
        <mxCell id="StJIcaHxCYxP3RWTADUP-5" value="Tiempo total" style="rounded=0;whiteSpace=wrap;html=1;" vertex="1" parent="WIyWlLk6GJQsqaUBKTNV-1">
          <mxGeometry x="164" y="-1090" width="120" height="60" as="geometry" />
        </mxCell>
        <mxCell id="StJIcaHxCYxP3RWTADUP-6" style="edgeStyle=orthogonalEdgeStyle;rounded=0;orthogonalLoop=1;jettySize=auto;html=1;entryX=0.5;entryY=0;entryDx=0;entryDy=0;" edge="1" parent="WIyWlLk6GJQsqaUBKTNV-1" source="StJIcaHxCYxP3RWTADUP-7" target="StJIcaHxCYxP3RWTADUP-8">
          <mxGeometry relative="1" as="geometry">
            <Array as="points">
              <mxPoint x="514" y="-1020" />
              <mxPoint x="364" y="-1020" />
            </Array>
          </mxGeometry>
        </mxCell>
        <mxCell id="StJIcaHxCYxP3RWTADUP-7" value="Cantidad de productos totales" style="rounded=0;whiteSpace=wrap;html=1;" vertex="1" parent="WIyWlLk6GJQsqaUBKTNV-1">
          <mxGeometry x="454" y="-1090" width="120" height="60" as="geometry" />
        </mxCell>
        <mxCell id="StJIcaHxCYxP3RWTADUP-8" value="Menú&amp;nbsp;" style="rounded=0;whiteSpace=wrap;html=1;" vertex="1" parent="WIyWlLk6GJQsqaUBKTNV-1">
          <mxGeometry x="304" y="-1010" width="120" height="60" as="geometry" />
        </mxCell>
        <mxCell id="StJIcaHxCYxP3RWTADUP-9" style="edgeStyle=orthogonalEdgeStyle;rounded=0;orthogonalLoop=1;jettySize=auto;html=1;entryX=0.5;entryY=0;entryDx=0;entryDy=0;" edge="1" parent="WIyWlLk6GJQsqaUBKTNV-1" source="StJIcaHxCYxP3RWTADUP-15" target="StJIcaHxCYxP3RWTADUP-22">
          <mxGeometry relative="1" as="geometry">
            <mxPoint x="49.99999999999977" y="-890" as="targetPoint" />
          </mxGeometry>
        </mxCell>
        <mxCell id="StJIcaHxCYxP3RWTADUP-10" style="edgeStyle=orthogonalEdgeStyle;rounded=0;orthogonalLoop=1;jettySize=auto;html=1;entryX=0.5;entryY=0;entryDx=0;entryDy=0;" edge="1" parent="WIyWlLk6GJQsqaUBKTNV-1" source="StJIcaHxCYxP3RWTADUP-15" target="StJIcaHxCYxP3RWTADUP-21">
          <mxGeometry relative="1" as="geometry" />
        </mxCell>
        <mxCell id="StJIcaHxCYxP3RWTADUP-11" style="edgeStyle=orthogonalEdgeStyle;rounded=0;orthogonalLoop=1;jettySize=auto;html=1;entryX=0.5;entryY=0;entryDx=0;entryDy=0;" edge="1" parent="WIyWlLk6GJQsqaUBKTNV-1" source="StJIcaHxCYxP3RWTADUP-15" target="StJIcaHxCYxP3RWTADUP-19">
          <mxGeometry relative="1" as="geometry" />
        </mxCell>
        <mxCell id="StJIcaHxCYxP3RWTADUP-12" style="edgeStyle=orthogonalEdgeStyle;rounded=0;orthogonalLoop=1;jettySize=auto;html=1;entryX=0.5;entryY=0;entryDx=0;entryDy=0;" edge="1" parent="WIyWlLk6GJQsqaUBKTNV-1" source="StJIcaHxCYxP3RWTADUP-15" target="StJIcaHxCYxP3RWTADUP-24">
          <mxGeometry relative="1" as="geometry" />
        </mxCell>
        <mxCell id="StJIcaHxCYxP3RWTADUP-13" style="edgeStyle=orthogonalEdgeStyle;rounded=0;orthogonalLoop=1;jettySize=auto;html=1;entryX=0.5;entryY=0;entryDx=0;entryDy=0;" edge="1" parent="WIyWlLk6GJQsqaUBKTNV-1" source="StJIcaHxCYxP3RWTADUP-15" target="StJIcaHxCYxP3RWTADUP-26">
          <mxGeometry relative="1" as="geometry" />
        </mxCell>
        <mxCell id="StJIcaHxCYxP3RWTADUP-14" style="edgeStyle=orthogonalEdgeStyle;rounded=0;orthogonalLoop=1;jettySize=auto;html=1;entryX=0.5;entryY=0;entryDx=0;entryDy=0;" edge="1" parent="WIyWlLk6GJQsqaUBKTNV-1" source="StJIcaHxCYxP3RWTADUP-15" target="StJIcaHxCYxP3RWTADUP-28">
          <mxGeometry relative="1" as="geometry" />
        </mxCell>
        <mxCell id="StJIcaHxCYxP3RWTADUP-15" value="Validación" style="rhombus;whiteSpace=wrap;html=1;" vertex="1" parent="WIyWlLk6GJQsqaUBKTNV-1">
          <mxGeometry x="324" y="-930" width="80" height="80" as="geometry" />
        </mxCell>
        <mxCell id="StJIcaHxCYxP3RWTADUP-16" style="edgeStyle=orthogonalEdgeStyle;rounded=0;orthogonalLoop=1;jettySize=auto;html=1;entryX=0.5;entryY=0;entryDx=0;entryDy=0;" edge="1" parent="WIyWlLk6GJQsqaUBKTNV-1" source="StJIcaHxCYxP3RWTADUP-17" target="StJIcaHxCYxP3RWTADUP-43">
          <mxGeometry relative="1" as="geometry" />
        </mxCell>
        <mxCell id="StJIcaHxCYxP3RWTADUP-17" value="Opción 3" style="rhombus;whiteSpace=wrap;html=1;" vertex="1" parent="WIyWlLk6GJQsqaUBKTNV-1">
          <mxGeometry x="321" y="-830" width="80" height="80" as="geometry" />
        </mxCell>
        <mxCell id="StJIcaHxCYxP3RWTADUP-18" value="" style="edgeStyle=orthogonalEdgeStyle;rounded=0;orthogonalLoop=1;jettySize=auto;html=1;" edge="1" parent="WIyWlLk6GJQsqaUBKTNV-1" source="StJIcaHxCYxP3RWTADUP-19" target="StJIcaHxCYxP3RWTADUP-35">
          <mxGeometry relative="1" as="geometry" />
        </mxCell>
        <mxCell id="StJIcaHxCYxP3RWTADUP-19" value="Opción 2" style="rhombus;whiteSpace=wrap;html=1;" vertex="1" parent="WIyWlLk6GJQsqaUBKTNV-1">
          <mxGeometry x="226" y="-830" width="80" height="80" as="geometry" />
        </mxCell>
        <mxCell id="StJIcaHxCYxP3RWTADUP-20" style="edgeStyle=orthogonalEdgeStyle;rounded=0;orthogonalLoop=1;jettySize=auto;html=1;entryX=0.5;entryY=0;entryDx=0;entryDy=0;" edge="1" parent="WIyWlLk6GJQsqaUBKTNV-1" source="StJIcaHxCYxP3RWTADUP-21" target="StJIcaHxCYxP3RWTADUP-31">
          <mxGeometry relative="1" as="geometry" />
        </mxCell>
        <mxCell id="StJIcaHxCYxP3RWTADUP-21" value="Opción 1" style="rhombus;whiteSpace=wrap;html=1;" vertex="1" parent="WIyWlLk6GJQsqaUBKTNV-1">
          <mxGeometry x="126" y="-830" width="80" height="80" as="geometry" />
        </mxCell>
        <mxCell id="StJIcaHxCYxP3RWTADUP-22" value="Opción 0" style="rhombus;whiteSpace=wrap;html=1;" vertex="1" parent="WIyWlLk6GJQsqaUBKTNV-1">
          <mxGeometry x="16" y="-830" width="80" height="80" as="geometry" />
        </mxCell>
        <mxCell id="StJIcaHxCYxP3RWTADUP-23" style="edgeStyle=orthogonalEdgeStyle;rounded=0;orthogonalLoop=1;jettySize=auto;html=1;entryX=0.5;entryY=0;entryDx=0;entryDy=0;" edge="1" parent="WIyWlLk6GJQsqaUBKTNV-1" source="StJIcaHxCYxP3RWTADUP-24" target="StJIcaHxCYxP3RWTADUP-53">
          <mxGeometry relative="1" as="geometry" />
        </mxCell>
        <mxCell id="StJIcaHxCYxP3RWTADUP-24" value="Opción 4" style="rhombus;whiteSpace=wrap;html=1;" vertex="1" parent="WIyWlLk6GJQsqaUBKTNV-1">
          <mxGeometry x="426" y="-830" width="80" height="80" as="geometry" />
        </mxCell>
        <mxCell id="StJIcaHxCYxP3RWTADUP-25" style="edgeStyle=orthogonalEdgeStyle;rounded=0;orthogonalLoop=1;jettySize=auto;html=1;entryX=0.5;entryY=0;entryDx=0;entryDy=0;" edge="1" parent="WIyWlLk6GJQsqaUBKTNV-1" source="StJIcaHxCYxP3RWTADUP-26" target="StJIcaHxCYxP3RWTADUP-62">
          <mxGeometry relative="1" as="geometry" />
        </mxCell>
        <mxCell id="StJIcaHxCYxP3RWTADUP-26" value="Opción 5" style="rhombus;whiteSpace=wrap;html=1;" vertex="1" parent="WIyWlLk6GJQsqaUBKTNV-1">
          <mxGeometry x="526" y="-830" width="80" height="80" as="geometry" />
        </mxCell>
        <mxCell id="StJIcaHxCYxP3RWTADUP-27" style="edgeStyle=orthogonalEdgeStyle;rounded=0;orthogonalLoop=1;jettySize=auto;html=1;entryX=0.5;entryY=0;entryDx=0;entryDy=0;" edge="1" parent="WIyWlLk6GJQsqaUBKTNV-1" source="StJIcaHxCYxP3RWTADUP-28" target="StJIcaHxCYxP3RWTADUP-68">
          <mxGeometry relative="1" as="geometry" />
        </mxCell>
        <mxCell id="StJIcaHxCYxP3RWTADUP-28" value="Opción 6" style="rhombus;whiteSpace=wrap;html=1;" vertex="1" parent="WIyWlLk6GJQsqaUBKTNV-1">
          <mxGeometry x="651" y="-830" width="80" height="80" as="geometry" />
        </mxCell>
        <mxCell id="StJIcaHxCYxP3RWTADUP-29" value="Fin&amp;nbsp;" style="ellipse;whiteSpace=wrap;html=1;aspect=fixed;" vertex="1" parent="WIyWlLk6GJQsqaUBKTNV-1">
          <mxGeometry x="16" y="-710" width="80" height="80" as="geometry" />
        </mxCell>
        <mxCell id="StJIcaHxCYxP3RWTADUP-30" style="edgeStyle=orthogonalEdgeStyle;rounded=0;orthogonalLoop=1;jettySize=auto;html=1;entryX=0.5;entryY=0;entryDx=0;entryDy=0;" edge="1" parent="WIyWlLk6GJQsqaUBKTNV-1" source="StJIcaHxCYxP3RWTADUP-31" target="StJIcaHxCYxP3RWTADUP-33">
          <mxGeometry relative="1" as="geometry" />
        </mxCell>
        <mxCell id="StJIcaHxCYxP3RWTADUP-31" value="Ingreso de productos&amp;nbsp;" style="rounded=0;whiteSpace=wrap;html=1;" vertex="1" parent="WIyWlLk6GJQsqaUBKTNV-1">
          <mxGeometry x="126" y="-700" width="75" height="60" as="geometry" />
        </mxCell>
        <mxCell id="StJIcaHxCYxP3RWTADUP-32" style="edgeStyle=orthogonalEdgeStyle;rounded=0;orthogonalLoop=1;jettySize=auto;html=1;exitX=-0.001;exitY=0.444;exitDx=0;exitDy=0;exitPerimeter=0;" edge="1" parent="WIyWlLk6GJQsqaUBKTNV-1" source="StJIcaHxCYxP3RWTADUP-33">
          <mxGeometry relative="1" as="geometry">
            <mxPoint x="304" y="-980" as="targetPoint" />
            <mxPoint x="100" y="-664" as="sourcePoint" />
            <Array as="points">
              <mxPoint x="100" y="-577" />
              <mxPoint x="100" y="-540" />
              <mxPoint x="10" y="-540" />
              <mxPoint x="10" y="-980" />
            </Array>
          </mxGeometry>
        </mxCell>
        <mxCell id="StJIcaHxCYxP3RWTADUP-33" value="-tiempo&lt;br&gt;-recursos&lt;br&gt;-nombre del producto" style="rounded=0;whiteSpace=wrap;html=1;" vertex="1" parent="WIyWlLk6GJQsqaUBKTNV-1">
          <mxGeometry x="116" y="-604" width="95" height="60" as="geometry" />
        </mxCell>
        <mxCell id="StJIcaHxCYxP3RWTADUP-34" style="edgeStyle=orthogonalEdgeStyle;rounded=0;orthogonalLoop=1;jettySize=auto;html=1;entryX=0.5;entryY=0;entryDx=0;entryDy=0;" edge="1" parent="WIyWlLk6GJQsqaUBKTNV-1" source="StJIcaHxCYxP3RWTADUP-35" target="StJIcaHxCYxP3RWTADUP-36">
          <mxGeometry relative="1" as="geometry" />
        </mxCell>
        <mxCell id="StJIcaHxCYxP3RWTADUP-35" value="Nombre de producto&amp;nbsp;" style="rounded=0;whiteSpace=wrap;html=1;" vertex="1" parent="WIyWlLk6GJQsqaUBKTNV-1">
          <mxGeometry x="226" y="-700" width="80" height="60" as="geometry" />
        </mxCell>
        <mxCell id="StJIcaHxCYxP3RWTADUP-36" value="Numero de producto a cambiar" style="rounded=0;whiteSpace=wrap;html=1;" vertex="1" parent="WIyWlLk6GJQsqaUBKTNV-1">
          <mxGeometry x="231" y="-604" width="70" height="60" as="geometry" />
        </mxCell>
        <mxCell id="StJIcaHxCYxP3RWTADUP-37" style="edgeStyle=orthogonalEdgeStyle;rounded=0;orthogonalLoop=1;jettySize=auto;html=1;entryX=0;entryY=0.5;entryDx=0;entryDy=0;" edge="1" parent="WIyWlLk6GJQsqaUBKTNV-1" source="StJIcaHxCYxP3RWTADUP-109" target="StJIcaHxCYxP3RWTADUP-51">
          <mxGeometry relative="1" as="geometry">
            <Array as="points">
              <mxPoint x="190" y="-270" />
            </Array>
          </mxGeometry>
        </mxCell>
        <mxCell id="StJIcaHxCYxP3RWTADUP-38" style="edgeStyle=orthogonalEdgeStyle;rounded=0;orthogonalLoop=1;jettySize=auto;html=1;entryX=0.5;entryY=0;entryDx=0;entryDy=0;" edge="1" parent="WIyWlLk6GJQsqaUBKTNV-1" source="StJIcaHxCYxP3RWTADUP-39" target="StJIcaHxCYxP3RWTADUP-41">
          <mxGeometry relative="1" as="geometry" />
        </mxCell>
        <mxCell id="StJIcaHxCYxP3RWTADUP-39" value="condiciones" style="rhombus;whiteSpace=wrap;html=1;" vertex="1" parent="WIyWlLk6GJQsqaUBKTNV-1">
          <mxGeometry x="226" y="-520" width="80" height="80" as="geometry" />
        </mxCell>
        <mxCell id="StJIcaHxCYxP3RWTADUP-40" style="edgeStyle=orthogonalEdgeStyle;rounded=0;orthogonalLoop=1;jettySize=auto;html=1;entryX=0;entryY=0.5;entryDx=0;entryDy=0;" edge="1" parent="WIyWlLk6GJQsqaUBKTNV-1" source="StJIcaHxCYxP3RWTADUP-41" target="StJIcaHxCYxP3RWTADUP-51">
          <mxGeometry relative="1" as="geometry">
            <Array as="points">
              <mxPoint x="280" y="-270" />
            </Array>
          </mxGeometry>
        </mxCell>
        <mxCell id="StJIcaHxCYxP3RWTADUP-41" value="Ingreso de nombre&amp;nbsp;" style="whiteSpace=wrap;html=1;aspect=fixed;" vertex="1" parent="WIyWlLk6GJQsqaUBKTNV-1">
          <mxGeometry x="221" y="-410" width="80" height="80" as="geometry" />
        </mxCell>
        <mxCell id="StJIcaHxCYxP3RWTADUP-42" style="edgeStyle=orthogonalEdgeStyle;rounded=0;orthogonalLoop=1;jettySize=auto;html=1;entryX=0.5;entryY=0;entryDx=0;entryDy=0;" edge="1" parent="WIyWlLk6GJQsqaUBKTNV-1" source="StJIcaHxCYxP3RWTADUP-43" target="StJIcaHxCYxP3RWTADUP-45">
          <mxGeometry relative="1" as="geometry" />
        </mxCell>
        <mxCell id="StJIcaHxCYxP3RWTADUP-43" value="Eliminación del producto&amp;nbsp;" style="whiteSpace=wrap;html=1;aspect=fixed;" vertex="1" parent="WIyWlLk6GJQsqaUBKTNV-1">
          <mxGeometry x="324" y="-710" width="80" height="80" as="geometry" />
        </mxCell>
        <mxCell id="StJIcaHxCYxP3RWTADUP-44" style="edgeStyle=orthogonalEdgeStyle;rounded=0;orthogonalLoop=1;jettySize=auto;html=1;entryX=0.5;entryY=0;entryDx=0;entryDy=0;" edge="1" parent="WIyWlLk6GJQsqaUBKTNV-1" source="StJIcaHxCYxP3RWTADUP-45" target="StJIcaHxCYxP3RWTADUP-48">
          <mxGeometry relative="1" as="geometry" />
        </mxCell>
        <mxCell id="StJIcaHxCYxP3RWTADUP-45" value="Nombre del producto&amp;nbsp;" style="whiteSpace=wrap;html=1;aspect=fixed;" vertex="1" parent="WIyWlLk6GJQsqaUBKTNV-1">
          <mxGeometry x="324" y="-604" width="80" height="80" as="geometry" />
        </mxCell>
        <mxCell id="StJIcaHxCYxP3RWTADUP-46" style="edgeStyle=orthogonalEdgeStyle;rounded=0;orthogonalLoop=1;jettySize=auto;html=1;entryX=0.5;entryY=0;entryDx=0;entryDy=0;" edge="1" parent="WIyWlLk6GJQsqaUBKTNV-1" source="StJIcaHxCYxP3RWTADUP-48" target="StJIcaHxCYxP3RWTADUP-49">
          <mxGeometry relative="1" as="geometry" />
        </mxCell>
        <mxCell id="StJIcaHxCYxP3RWTADUP-47" style="edgeStyle=orthogonalEdgeStyle;rounded=0;orthogonalLoop=1;jettySize=auto;html=1;entryX=0;entryY=0.5;entryDx=0;entryDy=0;" edge="1" parent="WIyWlLk6GJQsqaUBKTNV-1" source="StJIcaHxCYxP3RWTADUP-111" target="StJIcaHxCYxP3RWTADUP-51">
          <mxGeometry relative="1" as="geometry">
            <Array as="points">
              <mxPoint x="420" y="-270" />
            </Array>
          </mxGeometry>
        </mxCell>
        <mxCell id="StJIcaHxCYxP3RWTADUP-48" value="condición" style="rhombus;whiteSpace=wrap;html=1;" vertex="1" parent="WIyWlLk6GJQsqaUBKTNV-1">
          <mxGeometry x="330" y="-510" width="80" height="80" as="geometry" />
        </mxCell>
        <mxCell id="StJIcaHxCYxP3RWTADUP-49" value="Cambio del elemento&amp;nbsp;" style="whiteSpace=wrap;html=1;aspect=fixed;" vertex="1" parent="WIyWlLk6GJQsqaUBKTNV-1">
          <mxGeometry x="330" y="-410" width="80" height="80" as="geometry" />
        </mxCell>
        <mxCell id="StJIcaHxCYxP3RWTADUP-50" style="edgeStyle=orthogonalEdgeStyle;rounded=0;orthogonalLoop=1;jettySize=auto;html=1;entryX=0;entryY=0.5;entryDx=0;entryDy=0;" edge="1" parent="WIyWlLk6GJQsqaUBKTNV-1" source="StJIcaHxCYxP3RWTADUP-51" target="StJIcaHxCYxP3RWTADUP-8">
          <mxGeometry relative="1" as="geometry">
            <Array as="points">
              <mxPoint x="310" y="-270" />
              <mxPoint x="310" y="-980" />
            </Array>
          </mxGeometry>
        </mxCell>
        <mxCell id="StJIcaHxCYxP3RWTADUP-51" value="Impresión del&amp;nbsp;&lt;br&gt;inventario" style="whiteSpace=wrap;html=1;aspect=fixed;" vertex="1" parent="WIyWlLk6GJQsqaUBKTNV-1">
          <mxGeometry x="494" y="-310" width="80" height="80" as="geometry" />
        </mxCell>
        <mxCell id="StJIcaHxCYxP3RWTADUP-52" style="edgeStyle=orthogonalEdgeStyle;rounded=0;orthogonalLoop=1;jettySize=auto;html=1;entryX=0.5;entryY=0;entryDx=0;entryDy=0;" edge="1" parent="WIyWlLk6GJQsqaUBKTNV-1" source="StJIcaHxCYxP3RWTADUP-53" target="StJIcaHxCYxP3RWTADUP-55">
          <mxGeometry relative="1" as="geometry" />
        </mxCell>
        <mxCell id="StJIcaHxCYxP3RWTADUP-53" value="Cambio de tiempo" style="whiteSpace=wrap;html=1;aspect=fixed;" vertex="1" parent="WIyWlLk6GJQsqaUBKTNV-1">
          <mxGeometry x="426" y="-700" width="80" height="80" as="geometry" />
        </mxCell>
        <mxCell id="StJIcaHxCYxP3RWTADUP-54" style="edgeStyle=orthogonalEdgeStyle;rounded=0;orthogonalLoop=1;jettySize=auto;html=1;" edge="1" parent="WIyWlLk6GJQsqaUBKTNV-1" source="StJIcaHxCYxP3RWTADUP-55" target="StJIcaHxCYxP3RWTADUP-58">
          <mxGeometry relative="1" as="geometry" />
        </mxCell>
        <mxCell id="StJIcaHxCYxP3RWTADUP-55" value="Numero de producto&amp;nbsp;" style="whiteSpace=wrap;html=1;aspect=fixed;" vertex="1" parent="WIyWlLk6GJQsqaUBKTNV-1">
          <mxGeometry x="426" y="-604" width="80" height="80" as="geometry" />
        </mxCell>
        <mxCell id="StJIcaHxCYxP3RWTADUP-56" style="edgeStyle=orthogonalEdgeStyle;rounded=0;orthogonalLoop=1;jettySize=auto;html=1;entryX=0.5;entryY=0;entryDx=0;entryDy=0;" edge="1" parent="WIyWlLk6GJQsqaUBKTNV-1" source="StJIcaHxCYxP3RWTADUP-58" target="StJIcaHxCYxP3RWTADUP-60">
          <mxGeometry relative="1" as="geometry" />
        </mxCell>
        <mxCell id="StJIcaHxCYxP3RWTADUP-57" style="edgeStyle=orthogonalEdgeStyle;rounded=0;orthogonalLoop=1;jettySize=auto;html=1;" edge="1" parent="WIyWlLk6GJQsqaUBKTNV-1" source="StJIcaHxCYxP3RWTADUP-113" target="StJIcaHxCYxP3RWTADUP-51">
          <mxGeometry relative="1" as="geometry">
            <Array as="points">
              <mxPoint x="517" y="-330" />
              <mxPoint x="517" y="-330" />
            </Array>
          </mxGeometry>
        </mxCell>
        <mxCell id="StJIcaHxCYxP3RWTADUP-58" value="Condición&amp;nbsp;" style="rhombus;whiteSpace=wrap;html=1;" vertex="1" parent="WIyWlLk6GJQsqaUBKTNV-1">
          <mxGeometry x="426" y="-510" width="80" height="80" as="geometry" />
        </mxCell>
        <mxCell id="StJIcaHxCYxP3RWTADUP-59" style="edgeStyle=orthogonalEdgeStyle;rounded=0;orthogonalLoop=1;jettySize=auto;html=1;entryX=0;entryY=0.5;entryDx=0;entryDy=0;" edge="1" parent="WIyWlLk6GJQsqaUBKTNV-1" source="StJIcaHxCYxP3RWTADUP-60" target="StJIcaHxCYxP3RWTADUP-51">
          <mxGeometry relative="1" as="geometry" />
        </mxCell>
        <mxCell id="StJIcaHxCYxP3RWTADUP-60" value="Cambio" style="whiteSpace=wrap;html=1;aspect=fixed;" vertex="1" parent="WIyWlLk6GJQsqaUBKTNV-1">
          <mxGeometry x="426" y="-410" width="80" height="80" as="geometry" />
        </mxCell>
        <mxCell id="StJIcaHxCYxP3RWTADUP-61" style="edgeStyle=orthogonalEdgeStyle;rounded=0;orthogonalLoop=1;jettySize=auto;html=1;entryX=0.5;entryY=0;entryDx=0;entryDy=0;" edge="1" parent="WIyWlLk6GJQsqaUBKTNV-1" source="StJIcaHxCYxP3RWTADUP-62" target="StJIcaHxCYxP3RWTADUP-63">
          <mxGeometry relative="1" as="geometry" />
        </mxCell>
        <mxCell id="StJIcaHxCYxP3RWTADUP-62" value="Cambio de recurso" style="whiteSpace=wrap;html=1;aspect=fixed;" vertex="1" parent="WIyWlLk6GJQsqaUBKTNV-1">
          <mxGeometry x="526" y="-700" width="80" height="80" as="geometry" />
        </mxCell>
        <mxCell id="StJIcaHxCYxP3RWTADUP-63" value="Numero de producto&amp;nbsp;" style="whiteSpace=wrap;html=1;aspect=fixed;" vertex="1" parent="WIyWlLk6GJQsqaUBKTNV-1">
          <mxGeometry x="526" y="-604" width="80" height="80" as="geometry" />
        </mxCell>
        <mxCell id="StJIcaHxCYxP3RWTADUP-64" style="edgeStyle=orthogonalEdgeStyle;rounded=0;orthogonalLoop=1;jettySize=auto;html=1;entryX=0.5;entryY=0;entryDx=0;entryDy=0;" edge="1" parent="WIyWlLk6GJQsqaUBKTNV-1" source="StJIcaHxCYxP3RWTADUP-65" target="StJIcaHxCYxP3RWTADUP-66">
          <mxGeometry relative="1" as="geometry" />
        </mxCell>
        <mxCell id="StJIcaHxCYxP3RWTADUP-65" value="Condición&amp;nbsp;" style="rhombus;whiteSpace=wrap;html=1;" vertex="1" parent="WIyWlLk6GJQsqaUBKTNV-1">
          <mxGeometry x="531" y="-510" width="80" height="80" as="geometry" />
        </mxCell>
        <mxCell id="StJIcaHxCYxP3RWTADUP-66" value="Cambio de recurso" style="whiteSpace=wrap;html=1;aspect=fixed;" vertex="1" parent="WIyWlLk6GJQsqaUBKTNV-1">
          <mxGeometry x="526" y="-410" width="80" height="80" as="geometry" />
        </mxCell>
        <mxCell id="StJIcaHxCYxP3RWTADUP-67" style="edgeStyle=orthogonalEdgeStyle;rounded=0;orthogonalLoop=1;jettySize=auto;html=1;entryX=0.5;entryY=0;entryDx=0;entryDy=0;" edge="1" parent="WIyWlLk6GJQsqaUBKTNV-1" source="StJIcaHxCYxP3RWTADUP-68" target="StJIcaHxCYxP3RWTADUP-70">
          <mxGeometry relative="1" as="geometry" />
        </mxCell>
        <mxCell id="StJIcaHxCYxP3RWTADUP-68" value="Orden de compra&amp;nbsp;" style="rounded=0;whiteSpace=wrap;html=1;" vertex="1" parent="WIyWlLk6GJQsqaUBKTNV-1">
          <mxGeometry x="651" y="-700" width="120" height="60" as="geometry" />
        </mxCell>
        <mxCell id="StJIcaHxCYxP3RWTADUP-69" style="edgeStyle=orthogonalEdgeStyle;rounded=0;orthogonalLoop=1;jettySize=auto;html=1;entryX=0.5;entryY=0;entryDx=0;entryDy=0;" edge="1" parent="WIyWlLk6GJQsqaUBKTNV-1" source="StJIcaHxCYxP3RWTADUP-70" target="StJIcaHxCYxP3RWTADUP-72">
          <mxGeometry relative="1" as="geometry" />
        </mxCell>
        <mxCell id="StJIcaHxCYxP3RWTADUP-70" value="Nombre del producto&amp;nbsp;" style="rounded=0;whiteSpace=wrap;html=1;" vertex="1" parent="WIyWlLk6GJQsqaUBKTNV-1">
          <mxGeometry x="651" y="-604" width="120" height="60" as="geometry" />
        </mxCell>
        <mxCell id="StJIcaHxCYxP3RWTADUP-71" style="edgeStyle=orthogonalEdgeStyle;rounded=0;orthogonalLoop=1;jettySize=auto;html=1;entryX=0.5;entryY=0;entryDx=0;entryDy=0;" edge="1" parent="WIyWlLk6GJQsqaUBKTNV-1" source="StJIcaHxCYxP3RWTADUP-72" target="StJIcaHxCYxP3RWTADUP-75">
          <mxGeometry relative="1" as="geometry" />
        </mxCell>
        <mxCell id="StJIcaHxCYxP3RWTADUP-72" value="Busca el producto&amp;nbsp;" style="rounded=0;whiteSpace=wrap;html=1;" vertex="1" parent="WIyWlLk6GJQsqaUBKTNV-1">
          <mxGeometry x="651" y="-520" width="120" height="60" as="geometry" />
        </mxCell>
        <mxCell id="StJIcaHxCYxP3RWTADUP-73" style="edgeStyle=orthogonalEdgeStyle;rounded=0;orthogonalLoop=1;jettySize=auto;html=1;entryX=0.5;entryY=0;entryDx=0;entryDy=0;" edge="1" parent="WIyWlLk6GJQsqaUBKTNV-1" source="StJIcaHxCYxP3RWTADUP-75" target="StJIcaHxCYxP3RWTADUP-76">
          <mxGeometry relative="1" as="geometry">
            <Array as="points">
              <mxPoint x="651" y="-390" />
            </Array>
          </mxGeometry>
        </mxCell>
        <mxCell id="StJIcaHxCYxP3RWTADUP-74" style="edgeStyle=orthogonalEdgeStyle;rounded=0;orthogonalLoop=1;jettySize=auto;html=1;entryX=0.5;entryY=0;entryDx=0;entryDy=0;" edge="1" parent="WIyWlLk6GJQsqaUBKTNV-1" source="StJIcaHxCYxP3RWTADUP-75" target="StJIcaHxCYxP3RWTADUP-78">
          <mxGeometry relative="1" as="geometry">
            <Array as="points">
              <mxPoint x="770" y="-390" />
              <mxPoint x="770" y="-330" />
              <mxPoint x="771" y="-330" />
            </Array>
          </mxGeometry>
        </mxCell>
        <mxCell id="StJIcaHxCYxP3RWTADUP-75" value="Se encontró el producto" style="rhombus;whiteSpace=wrap;html=1;" vertex="1" parent="WIyWlLk6GJQsqaUBKTNV-1">
          <mxGeometry x="671" y="-430" width="80" height="80" as="geometry" />
        </mxCell>
        <mxCell id="StJIcaHxCYxP3RWTADUP-76" value="No se puede hacer la orden&amp;nbsp;" style="whiteSpace=wrap;html=1;aspect=fixed;" vertex="1" parent="WIyWlLk6GJQsqaUBKTNV-1">
          <mxGeometry x="611" y="-320" width="80" height="80" as="geometry" />
        </mxCell>
        <mxCell id="StJIcaHxCYxP3RWTADUP-77" style="edgeStyle=orthogonalEdgeStyle;rounded=0;orthogonalLoop=1;jettySize=auto;html=1;entryX=0.5;entryY=0;entryDx=0;entryDy=0;" edge="1" parent="WIyWlLk6GJQsqaUBKTNV-1" source="StJIcaHxCYxP3RWTADUP-78" target="StJIcaHxCYxP3RWTADUP-80">
          <mxGeometry relative="1" as="geometry" />
        </mxCell>
        <mxCell id="StJIcaHxCYxP3RWTADUP-78" value="Cuanto se necesita&amp;nbsp;" style="whiteSpace=wrap;html=1;aspect=fixed;" vertex="1" parent="WIyWlLk6GJQsqaUBKTNV-1">
          <mxGeometry x="731" y="-320" width="80" height="80" as="geometry" />
        </mxCell>
        <mxCell id="StJIcaHxCYxP3RWTADUP-79" style="edgeStyle=orthogonalEdgeStyle;rounded=0;orthogonalLoop=1;jettySize=auto;html=1;entryX=0.5;entryY=0;entryDx=0;entryDy=0;" edge="1" parent="WIyWlLk6GJQsqaUBKTNV-1" source="StJIcaHxCYxP3RWTADUP-80" target="StJIcaHxCYxP3RWTADUP-83">
          <mxGeometry relative="1" as="geometry" />
        </mxCell>
        <mxCell id="StJIcaHxCYxP3RWTADUP-80" value="Calculo de la orden&amp;nbsp;" style="whiteSpace=wrap;html=1;aspect=fixed;" vertex="1" parent="WIyWlLk6GJQsqaUBKTNV-1">
          <mxGeometry x="731" y="-220" width="80" height="80" as="geometry" />
        </mxCell>
        <mxCell id="StJIcaHxCYxP3RWTADUP-81" style="edgeStyle=orthogonalEdgeStyle;rounded=0;orthogonalLoop=1;jettySize=auto;html=1;" edge="1" parent="WIyWlLk6GJQsqaUBKTNV-1" source="StJIcaHxCYxP3RWTADUP-83" target="StJIcaHxCYxP3RWTADUP-84">
          <mxGeometry relative="1" as="geometry" />
        </mxCell>
        <mxCell id="StJIcaHxCYxP3RWTADUP-82" style="edgeStyle=orthogonalEdgeStyle;rounded=0;orthogonalLoop=1;jettySize=auto;html=1;entryX=1;entryY=0.5;entryDx=0;entryDy=0;" edge="1" parent="WIyWlLk6GJQsqaUBKTNV-1" source="StJIcaHxCYxP3RWTADUP-83" target="StJIcaHxCYxP3RWTADUP-86">
          <mxGeometry relative="1" as="geometry" />
        </mxCell>
        <mxCell id="StJIcaHxCYxP3RWTADUP-83" value="La Orden se puede completar&amp;nbsp;" style="rhombus;whiteSpace=wrap;html=1;" vertex="1" parent="WIyWlLk6GJQsqaUBKTNV-1">
          <mxGeometry x="731" y="-120" width="80" height="80" as="geometry" />
        </mxCell>
        <mxCell id="StJIcaHxCYxP3RWTADUP-84" value="Cambio de datos" style="rounded=0;whiteSpace=wrap;html=1;" vertex="1" parent="WIyWlLk6GJQsqaUBKTNV-1">
          <mxGeometry x="531" y="-170" width="120" height="60" as="geometry" />
        </mxCell>
        <mxCell id="StJIcaHxCYxP3RWTADUP-85" style="edgeStyle=orthogonalEdgeStyle;rounded=0;orthogonalLoop=1;jettySize=auto;html=1;" edge="1" parent="WIyWlLk6GJQsqaUBKTNV-1" source="StJIcaHxCYxP3RWTADUP-86">
          <mxGeometry relative="1" as="geometry">
            <mxPoint x="530" y="-230" as="targetPoint" />
            <Array as="points">
              <mxPoint x="520" y="-70" />
              <mxPoint x="520" y="-230" />
            </Array>
          </mxGeometry>
        </mxCell>
        <mxCell id="StJIcaHxCYxP3RWTADUP-86" value="No se puede hacer el cambio&amp;nbsp;" style="rounded=0;whiteSpace=wrap;html=1;" vertex="1" parent="WIyWlLk6GJQsqaUBKTNV-1">
          <mxGeometry x="531" y="-100" width="120" height="60" as="geometry" />
        </mxCell>
        <mxCell id="StJIcaHxCYxP3RWTADUP-87" style="edgeStyle=orthogonalEdgeStyle;rounded=0;orthogonalLoop=1;jettySize=auto;html=1;entryX=0.542;entryY=0;entryDx=0;entryDy=0;entryPerimeter=0;" edge="1" parent="WIyWlLk6GJQsqaUBKTNV-1" source="StJIcaHxCYxP3RWTADUP-2" target="StJIcaHxCYxP3RWTADUP-3">
          <mxGeometry relative="1" as="geometry" />
        </mxCell>
        <mxCell id="StJIcaHxCYxP3RWTADUP-88" style="edgeStyle=orthogonalEdgeStyle;rounded=0;orthogonalLoop=1;jettySize=auto;html=1;entryX=0.513;entryY=0.044;entryDx=0;entryDy=0;entryPerimeter=0;" edge="1" parent="WIyWlLk6GJQsqaUBKTNV-1" source="StJIcaHxCYxP3RWTADUP-8" target="StJIcaHxCYxP3RWTADUP-15">
          <mxGeometry relative="1" as="geometry" />
        </mxCell>
        <mxCell id="StJIcaHxCYxP3RWTADUP-89" style="edgeStyle=orthogonalEdgeStyle;rounded=0;orthogonalLoop=1;jettySize=auto;html=1;entryX=0.544;entryY=0.056;entryDx=0;entryDy=0;entryPerimeter=0;" edge="1" parent="WIyWlLk6GJQsqaUBKTNV-1" source="StJIcaHxCYxP3RWTADUP-15" target="StJIcaHxCYxP3RWTADUP-17">
          <mxGeometry relative="1" as="geometry" />
        </mxCell>
        <mxCell id="StJIcaHxCYxP3RWTADUP-90" style="edgeStyle=orthogonalEdgeStyle;rounded=0;orthogonalLoop=1;jettySize=auto;html=1;entryX=0.502;entryY=0.058;entryDx=0;entryDy=0;entryPerimeter=0;" edge="1" parent="WIyWlLk6GJQsqaUBKTNV-1" source="StJIcaHxCYxP3RWTADUP-36" target="StJIcaHxCYxP3RWTADUP-39">
          <mxGeometry relative="1" as="geometry" />
        </mxCell>
        <mxCell id="StJIcaHxCYxP3RWTADUP-91" style="edgeStyle=orthogonalEdgeStyle;rounded=0;orthogonalLoop=1;jettySize=auto;html=1;entryX=0.483;entryY=0.088;entryDx=0;entryDy=0;entryPerimeter=0;" edge="1" parent="WIyWlLk6GJQsqaUBKTNV-1" source="StJIcaHxCYxP3RWTADUP-63" target="StJIcaHxCYxP3RWTADUP-65">
          <mxGeometry relative="1" as="geometry" />
        </mxCell>
        <mxCell id="StJIcaHxCYxP3RWTADUP-92" style="edgeStyle=orthogonalEdgeStyle;rounded=0;orthogonalLoop=1;jettySize=auto;html=1;entryX=0.487;entryY=0.125;entryDx=0;entryDy=0;entryPerimeter=0;" edge="1" parent="WIyWlLk6GJQsqaUBKTNV-1" source="StJIcaHxCYxP3RWTADUP-66" target="StJIcaHxCYxP3RWTADUP-51">
          <mxGeometry relative="1" as="geometry" />
        </mxCell>
        <mxCell id="StJIcaHxCYxP3RWTADUP-93" style="edgeStyle=orthogonalEdgeStyle;rounded=0;orthogonalLoop=1;jettySize=auto;html=1;entryX=1.041;entryY=0.441;entryDx=0;entryDy=0;entryPerimeter=0;" edge="1" parent="WIyWlLk6GJQsqaUBKTNV-1" source="StJIcaHxCYxP3RWTADUP-76" target="StJIcaHxCYxP3RWTADUP-51">
          <mxGeometry relative="1" as="geometry" />
        </mxCell>
        <mxCell id="StJIcaHxCYxP3RWTADUP-94" value="SI" style="text;html=1;align=center;verticalAlign=middle;resizable=0;points=[];autosize=1;strokeColor=none;fillColor=none;" vertex="1" parent="WIyWlLk6GJQsqaUBKTNV-1">
          <mxGeometry x="274" y="-452" width="30" height="30" as="geometry" />
        </mxCell>
        <mxCell id="StJIcaHxCYxP3RWTADUP-95" value="No" style="text;html=1;align=center;verticalAlign=middle;resizable=0;points=[];autosize=1;strokeColor=none;fillColor=none;" vertex="1" parent="WIyWlLk6GJQsqaUBKTNV-1">
          <mxGeometry x="190" y="-512" width="40" height="30" as="geometry" />
        </mxCell>
        <mxCell id="StJIcaHxCYxP3RWTADUP-96" value="No" style="text;html=1;align=center;verticalAlign=middle;resizable=0;points=[];autosize=1;strokeColor=none;fillColor=none;" vertex="1" parent="WIyWlLk6GJQsqaUBKTNV-1">
          <mxGeometry x="384" y="-505" width="40" height="30" as="geometry" />
        </mxCell>
        <mxCell id="StJIcaHxCYxP3RWTADUP-97" value="si" style="text;html=1;align=center;verticalAlign=middle;resizable=0;points=[];autosize=1;strokeColor=none;fillColor=none;" vertex="1" parent="WIyWlLk6GJQsqaUBKTNV-1">
          <mxGeometry x="365" y="-442" width="30" height="30" as="geometry" />
        </mxCell>
        <mxCell id="StJIcaHxCYxP3RWTADUP-98" value="No" style="text;html=1;align=center;verticalAlign=middle;resizable=0;points=[];autosize=1;strokeColor=none;fillColor=none;" vertex="1" parent="WIyWlLk6GJQsqaUBKTNV-1">
          <mxGeometry x="480" y="-505" width="40" height="30" as="geometry" />
        </mxCell>
        <mxCell id="StJIcaHxCYxP3RWTADUP-99" value="si" style="text;html=1;align=center;verticalAlign=middle;resizable=0;points=[];autosize=1;strokeColor=none;fillColor=none;" vertex="1" parent="WIyWlLk6GJQsqaUBKTNV-1">
          <mxGeometry x="465" y="-442" width="30" height="30" as="geometry" />
        </mxCell>
        <mxCell id="StJIcaHxCYxP3RWTADUP-100" value="Si" style="text;html=1;align=center;verticalAlign=middle;resizable=0;points=[];autosize=1;strokeColor=none;fillColor=none;" vertex="1" parent="WIyWlLk6GJQsqaUBKTNV-1">
          <mxGeometry x="570" y="-442" width="30" height="30" as="geometry" />
        </mxCell>
        <mxCell id="StJIcaHxCYxP3RWTADUP-101" style="edgeStyle=orthogonalEdgeStyle;rounded=0;orthogonalLoop=1;jettySize=auto;html=1;entryX=0.988;entryY=0.575;entryDx=0;entryDy=0;entryPerimeter=0;" edge="1" parent="WIyWlLk6GJQsqaUBKTNV-1" source="StJIcaHxCYxP3RWTADUP-65" target="StJIcaHxCYxP3RWTADUP-51">
          <mxGeometry relative="1" as="geometry">
            <Array as="points">
              <mxPoint x="630" y="-470" />
              <mxPoint x="630" y="-330" />
              <mxPoint x="594" y="-330" />
              <mxPoint x="594" y="-264" />
            </Array>
          </mxGeometry>
        </mxCell>
        <mxCell id="StJIcaHxCYxP3RWTADUP-102" value="No" style="text;html=1;align=center;verticalAlign=middle;resizable=0;points=[];autosize=1;strokeColor=none;fillColor=none;" vertex="1" parent="WIyWlLk6GJQsqaUBKTNV-1">
          <mxGeometry x="600" y="-502" width="40" height="30" as="geometry" />
        </mxCell>
        <mxCell id="StJIcaHxCYxP3RWTADUP-103" value="No" style="text;html=1;align=center;verticalAlign=middle;resizable=0;points=[];autosize=1;strokeColor=none;fillColor=none;" vertex="1" parent="WIyWlLk6GJQsqaUBKTNV-1">
          <mxGeometry x="640" y="-432" width="40" height="30" as="geometry" />
        </mxCell>
        <mxCell id="StJIcaHxCYxP3RWTADUP-104" value="Si" style="text;html=1;align=center;verticalAlign=middle;resizable=0;points=[];autosize=1;strokeColor=none;fillColor=none;" vertex="1" parent="WIyWlLk6GJQsqaUBKTNV-1">
          <mxGeometry x="745" y="-432" width="30" height="30" as="geometry" />
        </mxCell>
        <mxCell id="StJIcaHxCYxP3RWTADUP-105" value="Si" style="text;html=1;align=center;verticalAlign=middle;resizable=0;points=[];autosize=1;strokeColor=none;fillColor=none;" vertex="1" parent="WIyWlLk6GJQsqaUBKTNV-1">
          <mxGeometry x="695" y="-132" width="30" height="30" as="geometry" />
        </mxCell>
        <mxCell id="StJIcaHxCYxP3RWTADUP-106" value="No" style="text;html=1;align=center;verticalAlign=middle;resizable=0;points=[];autosize=1;strokeColor=none;fillColor=none;" vertex="1" parent="WIyWlLk6GJQsqaUBKTNV-1">
          <mxGeometry x="680" y="-72" width="40" height="30" as="geometry" />
        </mxCell>
        <mxCell id="StJIcaHxCYxP3RWTADUP-107" style="edgeStyle=orthogonalEdgeStyle;rounded=0;orthogonalLoop=1;jettySize=auto;html=1;entryX=0.451;entryY=0.999;entryDx=0;entryDy=0;entryPerimeter=0;" edge="1" parent="WIyWlLk6GJQsqaUBKTNV-1" source="StJIcaHxCYxP3RWTADUP-84" target="StJIcaHxCYxP3RWTADUP-51">
          <mxGeometry relative="1" as="geometry" />
        </mxCell>
        <mxCell id="StJIcaHxCYxP3RWTADUP-108" value="" style="edgeStyle=orthogonalEdgeStyle;rounded=0;orthogonalLoop=1;jettySize=auto;html=1;entryX=0;entryY=0.5;entryDx=0;entryDy=0;" edge="1" parent="WIyWlLk6GJQsqaUBKTNV-1" source="StJIcaHxCYxP3RWTADUP-39" target="StJIcaHxCYxP3RWTADUP-109">
          <mxGeometry relative="1" as="geometry">
            <mxPoint x="226" y="-480" as="sourcePoint" />
            <mxPoint x="494" y="-270" as="targetPoint" />
            <Array as="points">
              <mxPoint x="190" y="-480" />
            </Array>
          </mxGeometry>
        </mxCell>
        <mxCell id="StJIcaHxCYxP3RWTADUP-109" value="No se puede cambiar&amp;nbsp;" style="whiteSpace=wrap;html=1;aspect=fixed;" vertex="1" parent="WIyWlLk6GJQsqaUBKTNV-1">
          <mxGeometry x="164" y="-472" width="50" height="50" as="geometry" />
        </mxCell>
        <mxCell id="StJIcaHxCYxP3RWTADUP-110" value="" style="edgeStyle=orthogonalEdgeStyle;rounded=0;orthogonalLoop=1;jettySize=auto;html=1;entryX=0;entryY=0.5;entryDx=0;entryDy=0;" edge="1" parent="WIyWlLk6GJQsqaUBKTNV-1" source="StJIcaHxCYxP3RWTADUP-48" target="StJIcaHxCYxP3RWTADUP-111">
          <mxGeometry relative="1" as="geometry">
            <mxPoint x="410" y="-470" as="sourcePoint" />
            <mxPoint x="494" y="-270" as="targetPoint" />
            <Array as="points">
              <mxPoint x="420" y="-470" />
            </Array>
          </mxGeometry>
        </mxCell>
        <mxCell id="StJIcaHxCYxP3RWTADUP-111" value="No se puede eliminar" style="whiteSpace=wrap;html=1;aspect=fixed;fontSize=9;" vertex="1" parent="WIyWlLk6GJQsqaUBKTNV-1">
          <mxGeometry x="404" y="-456" width="34" height="34" as="geometry" />
        </mxCell>
        <mxCell id="StJIcaHxCYxP3RWTADUP-112" value="" style="edgeStyle=orthogonalEdgeStyle;rounded=0;orthogonalLoop=1;jettySize=auto;html=1;" edge="1" parent="WIyWlLk6GJQsqaUBKTNV-1" source="StJIcaHxCYxP3RWTADUP-58" target="StJIcaHxCYxP3RWTADUP-113">
          <mxGeometry relative="1" as="geometry">
            <mxPoint x="506" y="-470" as="sourcePoint" />
            <mxPoint x="520" y="-310" as="targetPoint" />
            <Array as="points">
              <mxPoint x="520" y="-470" />
            </Array>
          </mxGeometry>
        </mxCell>
        <mxCell id="StJIcaHxCYxP3RWTADUP-113" value="&lt;font&gt;No se puede cambiar&lt;/font&gt;" style="whiteSpace=wrap;html=1;aspect=fixed;fontSize=9;" vertex="1" parent="WIyWlLk6GJQsqaUBKTNV-1">
          <mxGeometry x="500" y="-453.25" width="33.5" height="33.5" as="geometry" />
        </mxCell>
        <mxCell id="StJIcaHxCYxP3RWTADUP-114" value="&lt;font&gt;No se puede cambiar&lt;/font&gt;" style="whiteSpace=wrap;html=1;aspect=fixed;fontSize=9;" vertex="1" parent="WIyWlLk6GJQsqaUBKTNV-1">
          <mxGeometry x="611" y="-456" width="33.5" height="33.5" as="geometry" />
        </mxCell>
        <mxCell id="StJIcaHxCYxP3RWTADUP-115" style="edgeStyle=orthogonalEdgeStyle;rounded=0;orthogonalLoop=1;jettySize=auto;html=1;entryX=-0.005;entryY=0.561;entryDx=0;entryDy=0;entryPerimeter=0;" edge="1" parent="WIyWlLk6GJQsqaUBKTNV-1" source="StJIcaHxCYxP3RWTADUP-49" target="StJIcaHxCYxP3RWTADUP-51">
          <mxGeometry relative="1" as="geometry">
            <Array as="points">
              <mxPoint x="370" y="-270" />
              <mxPoint x="494" y="-270" />
            </Array>
          </mxGeometry>
        </mxCell>
      </root>
    </mxGraphModel>
  </diagram>
</mxfile>
